Coordinates
version=1
nRows=8
nColumns=40
inDegrees=yes

Units are S.I. units (second, meters, Newtons, ...)
Angles are in degrees.

endheader
time	pelvis_tilt	pelvis_list	pelvis_rotation	pelvis_tx	pelvis_ty	pelvis_tz	hip_flexion_r	hip_adduction_r	hip_rotation_r	knee_angle_r	knee_angle_r_beta	ankle_angle_r	subtalar_angle_r	mtp_angle_r	hip_flexion_l	hip_adduction_l	hip_rotation_l	knee_angle_l	knee_angle_l_beta	ankle_angle_l	subtalar_angle_l	mtp_angle_l	lumbar_extension	lumbar_bending	lumbar_rotation	arm_flex_r	arm_add_r	arm_rot_r	elbow_flex_r	pro_sup_r	wrist_flex_r	wrist_dev_r	arm_flex_l	arm_add_l	arm_rot_l	elbow_flex_l	pro_sup_l	wrist_flex_l	wrist_dev_l
     43.23000000	     -4.46488881	     -3.03634737	     -0.65682186	      0.98879855	      0.93301784	      0.40579056	     32.84513730	     -6.17983568	     -4.99067745	     67.21688822	     67.21688822	     -0.20582196	    -18.88923928	      9.42768281	     13.54122982	     -1.84706598	     -6.94903082	     20.13448621	     20.13448621	     13.23137493	    -14.01822763	      3.48537019	     -9.32411609	      5.76584761	      3.06334670	      8.58746059	    -11.59630885	     -2.46630129	     37.08750072	     45.89561907	      0.00000000	      0.00000000	     13.32621938	    -13.48069370	     -3.09890564	     56.75953190	     46.33129289	      0.00000000	      0.00000000
     43.24228571	     -4.51170324	     -3.30408416	     -0.99662964	      0.98739675	      0.93354723	      0.40618652	     33.86432717	     -5.60184158	     -4.93958167	     65.09370544	     65.09370544	      0.04392052	    -18.70871723	      9.03346379	     12.88214548	     -2.16340460	     -7.16929181	     19.74548812	     19.74548812	     13.50498082	    -13.89515352	      3.42166691	     -9.55729337	      6.11790285	      3.36321128	      6.89168067	    -11.88113952	     -2.45628872	     35.37270551	     45.95127637	      0.00000000	      0.00000000	     14.74983383	    -13.70726848	     -3.44363143	     58.27688278	     46.40054875	      0.00000000	      0.00000000
     43.25457143	     -4.59635721	     -3.55559348	     -1.26200091	      0.98601984	      0.93395147	      0.40661530	     34.66212224	     -5.13643340	     -5.07383699	     62.57468723	     62.57468723	     -0.45212674	    -18.57112647	      6.32758584	     12.21573008	     -2.47011875	     -7.46918387	     19.22483617	     19.22483617	     13.62145824	    -13.66125670	      3.05422868	     -9.73465713	      6.36090859	      2.79509955	      6.71362968	    -11.53122842	     -3.16171963	     30.94567541	     46.17507409	      0.00000000	      0.00000000	     15.10626984	    -14.40779167	     -4.25836970	     61.10113928	     46.56814762	      0.00000000	      0.00000000
     43.26685714	     -4.67480222	     -3.83535351	     -1.52191422	      0.98472021	      0.93432479	      0.40702247	     35.33422932	     -4.56072552	     -5.13685847	     59.87043094	     59.87043094	     -0.25258402	    -18.19132315	      6.30677221	     11.58532188	     -2.77968636	     -7.60667334	     18.79761546	     18.79761546	     13.88088814	    -13.56034660	      3.03081085	     -9.90727246	      6.73993096	      2.85577059	      5.05404336	    -11.74667430	     -3.20558025	     29.83577947	     46.21132828	      0.00000000	      0.00000000	     16.41722254	    -14.77360889	     -4.66810637	     62.22557266	     46.63073948	      0.00000000	      0.00000000
     43.27914286	     -4.70126131	     -4.02951994	     -1.82497650	      0.98355532	      0.93462610	      0.40750226	     35.69004369	     -4.08575640	     -5.20031224	     56.71156370	     56.71156370	     -0.88065917	    -17.87567586	      3.55558944	     10.86924988	     -3.02288757	     -7.96217666	     18.32665592	     18.32665592	     14.05126453	    -13.27311310	      2.62789418	    -10.17652326	      6.92335459	      2.68000630	      4.59164762	    -11.60412320	     -4.29888047	     26.11719162	     46.45734674	      0.00000000	      0.00000000	     16.96385022	    -15.13195907	     -5.72266441	     65.14702598	     46.81525079	      0.00000000	      0.00000000
     43.29142857	     -4.76070177	     -4.23349038	     -2.09274811	      0.98248560	      0.93482109	      0.40800803	     35.98613307	     -3.57582441	     -5.24246990	     53.40948585	     53.40948585	     -0.73729150	    -17.12622625	      3.38862506	     10.20209738	     -3.24423476	     -8.15033018	     17.87476442	     17.87476442	     14.28827746	    -13.15982244	      2.60755072	    -10.37529159	      7.16715243	      2.88648822	      3.01224734	    -11.84373993	     -4.52332847	     25.05199526	     46.51091102	      0.00000000	      0.00000000	     18.21505898	    -15.30027564	     -6.16035631	     66.48381818	     46.88678284	      0.00000000	      0.00000000
     43.30371429	     -4.86775992	     -4.38215648	     -2.31560600	      0.98153671	      0.93477312	      0.40846350	     36.04362730	     -3.23020752	     -5.48668492	     49.60319553	     49.60319553	     -1.39050904	    -16.34630881	      0.58524963	      9.62263932	     -3.41943359	     -8.40010959	     17.49007548	     17.49007548	     14.51393341	    -12.92394591	      2.34508238	    -10.49597008	      7.35475554	      2.52233303	      2.11071426	    -11.76622790	     -6.01884895	     23.29100160	     46.72981493	      0.00000000	      0.00000000	     18.66909434	    -15.77096475	     -7.07446101	     68.92183393	     47.05024275	      0.00000000	      0.00000000
     43.31600000	     -5.01638013	     -4.49128076	     -2.55490013	      0.98072953	      0.93458421	      0.40898279	     36.04724715	     -2.88529084	     -5.69308526	     45.67872889	     45.67872889	     -1.22805108	    -14.94940594	      0.15536981	      9.05242129	     -3.53672312	     -8.61319366	     17.05052865	     17.05052865	     14.75128740	    -12.78645505	      2.30207054	    -10.53112019	      7.50704924	      2.68439442	      0.55415353	    -11.97896586	     -6.47992270	     22.51982345	     46.79828394	      0.00000000	      0.00000000	     19.72271188	    -15.86660742	     -7.44107905	     70.29183309	     47.12237506	      0.00000000	      0.00000000
